<svg xmlns="http://www.w3.org/2000/svg" viewBox="0 0 900 900" width="900" height="900" role="img">
  <defs>
    <radialGradient id="bg-p69" cx="42%" cy="30%" r="82%">
      <stop offset="0%" stop-color="#faf5ec"/>
      <stop offset="100%" stop-color="#ddcbb1"/>
    </radialGradient>
    <linearGradient id="glass-p69" x1="0" y1="0" x2="1" y2="0">
      <stop offset="0%" stop-color="#ffffff" stop-opacity=".55"/>
      <stop offset="26%" stop-color="#ffffff" stop-opacity=".12"/>
      <stop offset="72%" stop-color="#ffffff" stop-opacity=".06"/>
      <stop offset="100%" stop-color="#ffffff" stop-opacity=".38"/>
    </linearGradient>
    <filter id="soft-p69" x="-30%" y="-30%" width="160%" height="160%">
      <feDropShadow dx="0" dy="18" stdDeviation="22" flood-color="#40251a" flood-opacity=".16"/>
    </filter>
    <filter id="grain-p69" x="0" y="0" width="100%" height="100%">
      <feTurbulence type="fractalNoise" baseFrequency=".9" numOctaves="3" seed="7"/>
      <feColorMatrix type="saturate" values="0"/>
    </filter>
  </defs>
  <rect width="900" height="900" fill="url(#bg-p69)"/>
  <circle cx="716" cy="188" r="132" fill="#ffffff" opacity=".28"/>
  <circle cx="168" cy="742" r="96" fill="#ffffff" opacity=".2"/>
  <path d="M108 214c26-18 52-18 78 0s52 18 78 0" fill="none" stroke="#ffffff" stroke-opacity=".5" stroke-width="9" stroke-linecap="round"/>
  <ellipse cx="450" cy="812" rx="206" ry="45.32" fill="#40251a" opacity="0.12"/>
  <g filter="url(#soft-p69)">
    <rect x="286" y="452" width="330" height="118" rx="22" fill="#d8b070"/>
    <rect x="286" y="452" width="330" height="34" rx="16" fill="#c0904f"/>
    <rect x="316" y="336" width="272" height="122" rx="22" fill="#d8b070" transform="rotate(-4 452 397)"/>
    <rect x="316" y="336" width="272" height="34" rx="16" fill="#c0904f" transform="rotate(-4 452 353)"/>
  </g>
  <path d="M320 330c48 26 90-10 138 12s84-4 130 16" stroke="#d8a566" stroke-width="24" fill="none" stroke-linecap="round"/>
  <g filter="url(#soft-p69)"><circle cx="586" cy="392" r="62" fill="#ffffff"/><circle cx="566" cy="368" r="16" fill="#ffffff" opacity=".45"/></g>
  <circle cx="330" cy="610" r="8" fill="#764a34"/><circle cx="408" cy="632" r="6.4" fill="#764a34"/><circle cx="520" cy="618" r="7.2" fill="#764a34"/><circle cx="600" cy="592" r="5.6" fill="#764a34"/>
  <rect width="900" height="900" filter="url(#grain-p69)" opacity=".045" style="mix-blend-mode:multiply"/>
</svg>