<svg xmlns="http://www.w3.org/2000/svg" viewBox="0 0 900 900" width="900" height="900" role="img">
  <defs>
    <radialGradient id="bg-hero3" cx="42%" cy="30%" r="82%">
      <stop offset="0%" stop-color="#d2dab9"/>
      <stop offset="100%" stop-color="#b5c194"/>
    </radialGradient>
    <linearGradient id="glass-hero3" x1="0" y1="0" x2="1" y2="0">
      <stop offset="0%" stop-color="#ffffff" stop-opacity=".55"/>
      <stop offset="26%" stop-color="#ffffff" stop-opacity=".12"/>
      <stop offset="72%" stop-color="#ffffff" stop-opacity=".06"/>
      <stop offset="100%" stop-color="#ffffff" stop-opacity=".38"/>
    </linearGradient>
    <filter id="soft-hero3" x="-30%" y="-30%" width="160%" height="160%">
      <feDropShadow dx="0" dy="18" stdDeviation="22" flood-color="#40251a" flood-opacity=".16"/>
    </filter>
    <filter id="grain-hero3" x="0" y="0" width="100%" height="100%">
      <feTurbulence type="fractalNoise" baseFrequency=".9" numOctaves="3" seed="7"/>
      <feColorMatrix type="saturate" values="0"/>
    </filter>
  </defs>
  <rect width="900" height="900" fill="url(#bg-hero3)"/>
  <ellipse cx="450" cy="812" rx="206" ry="45.32" fill="#40251a" opacity="0.12"/>
  <g filter="url(#soft-hero3)">
    <path d="M334 268h232l-26 452a62 62 0 0 1-62 58h-56a62 62 0 0 1-62-58z" fill="#ffffff" opacity=".6"/>
    <clipPath id="msclip-hero3">
      <path d="M334 268h232l-26 452a62 62 0 0 1-62 58h-56a62 62 0 0 1-62-58z"/>
    </clipPath>
    <g clip-path="url(#msclip-hero3)">
      <rect x="320" y="330" width="270" height="460" fill="#e79aa0"/>
      <path d="M320 344c34-18 60 12 96-4s62 14 92-2 56 10 82-4v-24H320z" fill="#ffffff" opacity=".35"/>
    </g>
    <path d="M334 268h232l-26 452a62 62 0 0 1-62 58h-56a62 62 0 0 1-62-58z" fill="url(#glass-hero3)"/>
    <path d="M334 268h232l-26 452a62 62 0 0 1-62 58h-56a62 62 0 0 1-62-58z" fill="none" stroke="#ffffff" stroke-opacity=".8" stroke-width="4"/>
  </g>
  <rect x="486" y="128" width="26" height="190" rx="13" fill="#7e8d5b" transform="rotate(13 499 223)"/>
  <g filter="url(#soft-hero3)">
    <path d="M330 272c4-46 40-72 88-72 16-38 76-46 100-14 40-12 76 16 76 58 0 12-4 22-10 28z" fill="#ffffff"/>
  </g>
  <circle cx="404" cy="212" r="26" fill="#d76a71"/>
  <circle cx="350" cy="250" r="8" fill="#d76a71"/><circle cx="560" cy="258" r="7.2" fill="#d76a71"/><circle cx="470" cy="196" r="5.6" fill="#d76a71"/>
  <rect width="900" height="900" filter="url(#grain-hero3)" opacity=".045" style="mix-blend-mode:multiply"/>
</svg>