<svg xmlns="http://www.w3.org/2000/svg" viewBox="0 0 900 900" width="640" height="640" role="img">
  <defs>
    <radialGradient id="bg-c74" cx="42%" cy="30%" r="82%">
      <stop offset="0%" stop-color="#f4ecdf"/>
      <stop offset="100%" stop-color="#c8a086"/>
    </radialGradient>
    <linearGradient id="glass-c74" x1="0" y1="0" x2="1" y2="0">
      <stop offset="0%" stop-color="#ffffff" stop-opacity=".55"/>
      <stop offset="26%" stop-color="#ffffff" stop-opacity=".12"/>
      <stop offset="72%" stop-color="#ffffff" stop-opacity=".06"/>
      <stop offset="100%" stop-color="#ffffff" stop-opacity=".38"/>
    </linearGradient>
    <filter id="soft-c74" x="-30%" y="-30%" width="160%" height="160%">
      <feDropShadow dx="0" dy="18" stdDeviation="22" flood-color="#40251a" flood-opacity=".16"/>
    </filter>
    <filter id="grain-c74" x="0" y="0" width="100%" height="100%">
      <feTurbulence type="fractalNoise" baseFrequency=".9" numOctaves="3" seed="7"/>
      <feColorMatrix type="saturate" values="0"/>
    </filter>
  </defs>
  <rect width="900" height="900" fill="url(#bg-c74)"/>
  <ellipse cx="450" cy="812" rx="206" ry="45.32" fill="#40251a" opacity="0.12"/>
  <g filter="url(#soft-c74)">
    <rect x="286" y="452" width="330" height="118" rx="22" fill="#4a2f22"/>
    <rect x="286" y="452" width="330" height="34" rx="16" fill="#3a241a"/>
    <rect x="316" y="336" width="272" height="122" rx="22" fill="#4a2f22" transform="rotate(-4 452 397)"/>
    <rect x="316" y="336" width="272" height="34" rx="16" fill="#3a241a" transform="rotate(-4 452 353)"/>
  </g>
  <path d="M320 330c48 26 90-10 138 12s84-4 130 16" stroke="#6b4230" stroke-width="24" fill="none" stroke-linecap="round"/>
  <g filter="url(#soft-c74)"><circle cx="586" cy="392" r="62" fill="#f7ecd6"/><circle cx="566" cy="368" r="16" fill="#ffffff" opacity=".45"/></g>
  <circle cx="330" cy="610" r="8" fill="#764a34"/><circle cx="408" cy="632" r="6.4" fill="#764a34"/><circle cx="520" cy="618" r="7.2" fill="#764a34"/><circle cx="600" cy="592" r="5.6" fill="#764a34"/>
  <rect width="900" height="900" filter="url(#grain-c74)" opacity=".045" style="mix-blend-mode:multiply"/>
</svg>