<svg xmlns="http://www.w3.org/2000/svg" viewBox="0 0 1200 800" width="1200" height="800" role="img">
  <defs>
    <radialGradient id="bg-k81" cx="42%" cy="30%" r="82%">
      <stop offset="0%" stop-color="#d2dab9"/>
      <stop offset="100%" stop-color="#b5c194"/>
    </radialGradient>
    <linearGradient id="glass-k81" x1="0" y1="0" x2="1" y2="0">
      <stop offset="0%" stop-color="#ffffff" stop-opacity=".55"/>
      <stop offset="26%" stop-color="#ffffff" stop-opacity=".12"/>
      <stop offset="72%" stop-color="#ffffff" stop-opacity=".06"/>
      <stop offset="100%" stop-color="#ffffff" stop-opacity=".38"/>
    </linearGradient>
    <filter id="soft-k81" x="-30%" y="-30%" width="160%" height="160%">
      <feDropShadow dx="0" dy="18" stdDeviation="22" flood-color="#40251a" flood-opacity=".16"/>
    </filter>
    <filter id="grain-k81" x="0" y="0" width="100%" height="100%">
      <feTurbulence type="fractalNoise" baseFrequency=".9" numOctaves="3" seed="7"/>
      <feColorMatrix type="saturate" values="0"/>
    </filter>
  </defs>
  <defs>
    <radialGradient id="bg-k81-0" cx="42%" cy="30%" r="82%">
      <stop offset="0%" stop-color="#d2dab9"/>
      <stop offset="100%" stop-color="#b5c194"/>
    </radialGradient>
    <linearGradient id="glass-k81-0" x1="0" y1="0" x2="1" y2="0">
      <stop offset="0%" stop-color="#ffffff" stop-opacity=".55"/>
      <stop offset="26%" stop-color="#ffffff" stop-opacity=".12"/>
      <stop offset="72%" stop-color="#ffffff" stop-opacity=".06"/>
      <stop offset="100%" stop-color="#ffffff" stop-opacity=".38"/>
    </linearGradient>
    <filter id="soft-k81-0" x="-30%" y="-30%" width="160%" height="160%">
      <feDropShadow dx="0" dy="18" stdDeviation="22" flood-color="#40251a" flood-opacity=".16"/>
    </filter>
    <filter id="grain-k81-0" x="0" y="0" width="100%" height="100%">
      <feTurbulence type="fractalNoise" baseFrequency=".9" numOctaves="3" seed="7"/>
      <feColorMatrix type="saturate" values="0"/>
    </filter>
  </defs>
  <defs>
    <radialGradient id="bg-k81-1" cx="42%" cy="30%" r="82%">
      <stop offset="0%" stop-color="#d2dab9"/>
      <stop offset="100%" stop-color="#b5c194"/>
    </radialGradient>
    <linearGradient id="glass-k81-1" x1="0" y1="0" x2="1" y2="0">
      <stop offset="0%" stop-color="#ffffff" stop-opacity=".55"/>
      <stop offset="26%" stop-color="#ffffff" stop-opacity=".12"/>
      <stop offset="72%" stop-color="#ffffff" stop-opacity=".06"/>
      <stop offset="100%" stop-color="#ffffff" stop-opacity=".38"/>
    </linearGradient>
    <filter id="soft-k81-1" x="-30%" y="-30%" width="160%" height="160%">
      <feDropShadow dx="0" dy="18" stdDeviation="22" flood-color="#40251a" flood-opacity=".16"/>
    </filter>
    <filter id="grain-k81-1" x="0" y="0" width="100%" height="100%">
      <feTurbulence type="fractalNoise" baseFrequency=".9" numOctaves="3" seed="7"/>
      <feColorMatrix type="saturate" values="0"/>
    </filter>
  </defs>
  <rect width="1200" height="800" fill="url(#bg-k81)"/>
  <circle cx="983.9999999999999" cy="160" r="240" fill="#ffffff" opacity=".25"/>
  <circle cx="144" cy="688" r="160" fill="#ffffff" opacity=".18"/>
  <rect x="0" y="788" width="1200" height="12" fill="#7e8d5b"/>
  <g transform="translate(100 80) scale(0.6)">
  <g filter="url(#soft-k81-0)">
    <path d="M292 330h316l-34 372a58 58 0 0 1-58 53H384a58 58 0 0 1-58-53z" fill="#ffffff" opacity=".62"/>
    <clipPath id="cupclip-k81-0">
      <path d="M292 330h316l-34 372a58 58 0 0 1-58 53H384a58 58 0 0 1-58-53z"/>
    </clipPath>
    <g clip-path="url(#cupclip-k81-0)">
      <rect x="280" y="590" width="340" height="200" fill="#8f5f45"/>
      <rect x="280" y="486" width="340" height="116" fill="#f7ecd6"/>
      <rect x="280" y="400" width="340" height="96" fill="#c8a086"/>
      <path d="M280 404c40-22 74 14 116-4s70 16 112-2 76 12 112-6v-46H280z" fill="#f7ecd6"/>
      <circle cx="330" cy="640" r="8" fill="#764a34"/><circle cx="368" cy="700" r="6.4" fill="#764a34"/><circle cx="420" cy="660" r="8.8" fill="#764a34"/><circle cx="500" cy="690" r="7.2" fill="#764a34"/><circle cx="548" cy="636" r="8" fill="#764a34"/><circle cx="462" cy="726" r="6.4" fill="#764a34"/>
    </g>
    <path d="M292 330h316l-34 372a58 58 0 0 1-58 53H384a58 58 0 0 1-58-53z" fill="url(#glass-k81-0)"/>
    <path d="M292 330h316l-34 372a58 58 0 0 1-58 53H384a58 58 0 0 1-58-53z" fill="none" stroke="#ffffff" stroke-opacity=".75" stroke-width="4"/>
  </g>
  <!-- krema kubbesi -->
  <g filter="url(#soft-k81-0)">
    <path d="M300 336c8-52 44-84 96-92 22-42 84-52 112-18 44-16 84 12 88 56 6 22 2 42-10 54z" fill="#ffffff"/>
    <path d="M330 316c14-26 40-40 72-40" stroke="#ece0cd" stroke-width="7" fill="none" stroke-linecap="round" opacity=".7"/>
  </g>
  <circle cx="452" cy="252" r="30" fill="#ac7d60"/>
  <path d="M452 224c-10-12-2-26 12-22" stroke="#7e8d5b" stroke-width="7" fill="none" stroke-linecap="round"/>
  <circle cx="356" cy="296" r="9" fill="#764a34"/><circle cx="546" cy="306" r="8.1" fill="#764a34"/><circle cx="500" cy="268" r="6.3" fill="#764a34"/></g><g transform="translate(560 70) scale(0.66)">
  <g filter="url(#soft-k81-1)">
    <path d="M330 250h240v452a72 72 0 0 1-72 72h-96a72 72 0 0 1-72-72z" fill="#ffffff" opacity=".55"/>
    <clipPath id="dclip-k81-1">
      <path d="M330 250h240v452a72 72 0 0 1-72 72h-96a72 72 0 0 1-72-72z"/>
    </clipPath>
    <g clip-path="url(#dclip-k81-1)">
      <rect x="320" y="358" width="272" height="440" fill="#eddb8f"/>
      <g fill="#ffffff" opacity=".42">
        <rect x="372" y="398" width="78" height="78" rx="16" transform="rotate(-14 411 437)"/>
        <rect x="466" y="452" width="70" height="70" rx="15" transform="rotate(12 501 487)"/>
        <rect x="386" y="530" width="72" height="72" rx="15" transform="rotate(22 422 566)"/>
      </g>
    </g>
    <path d="M330 250h240v452a72 72 0 0 1-72 72h-96a72 72 0 0 1-72-72z" fill="url(#glass-k81-1)"/>
    <path d="M330 250h240v452a72 72 0 0 1-72 72h-96a72 72 0 0 1-72-72z" fill="none" stroke="#ffffff" stroke-opacity=".8" stroke-width="4"/>
  </g>
  <rect x="470" y="120" width="24" height="220" rx="12" fill="#e28f84" transform="rotate(11 482 230)"/>
  <circle cx="596" cy="286" r="40" fill="#e8d06a"/>
  <path d="M596 250c-12-14-2-32 16-26" stroke="#7e8d5b" stroke-width="8" fill="none" stroke-linecap="round"/></g>
  <rect width="1200" height="800" filter="url(#grain-k81)" opacity=".045" style="mix-blend-mode:multiply"/>
</svg>